<svg width="797" height="241" viewBox="0 0 797 241" fill="none" xmlns="http://www.w3.org/2000/svg">
<path fill-rule="evenodd" clip-rule="evenodd" d="M494.42 187.758C448.277 221.895 381.162 240.083 323.274 240.083C242.176 240.083 169.467 210.143 114.097 160.335C109.902 156.418 113.537 151.102 118.851 154.18C178.416 188.877 251.964 209.583 328.028 209.583C379.204 209.583 435.693 198.95 487.708 176.845C495.538 173.767 501.97 182.161 494.42 187.758Z" fill="#FF9900"/>
<path fill-rule="evenodd" clip-rule="evenodd" d="M513.715 165.652C507.843 158.097 474.564 162.014 459.743 163.973C455.269 164.533 454.43 160.615 458.624 157.817C485.191 139.069 528.537 144.666 533.57 150.822C538.604 156.978 532.172 200.629 507.283 221.336C503.368 224.414 499.733 222.735 501.411 218.538C507.004 204.547 519.588 173.487 513.715 165.652Z" fill="#FF9900"/>
<path fill-rule="evenodd" clip-rule="evenodd" d="M460.582 26.3029L460.582 8.11476C460.582 5.31659 462.54 3.63767 465.056 3.63767L546.155 3.63768C548.672 3.63768 550.909 5.59642 550.909 8.11477L550.909 23.5047C550.909 26.0231 548.672 29.3809 544.756 34.9772L502.809 94.858C518.469 94.5782 534.969 96.8168 548.951 104.652C552.027 106.331 552.866 109.129 553.146 111.647L553.146 130.954C553.146 133.753 550.349 136.831 547.273 135.152C522.385 122 489.106 120.601 461.701 135.431C458.904 136.831 455.828 134.032 455.828 131.234L455.828 112.766C455.828 109.968 455.828 104.931 458.904 100.454L507.563 30.78L465.336 30.7799C462.819 30.7799 460.582 28.8212 460.582 26.3029V26.3029ZM164.993 139.069L140.384 139.069C138.147 138.789 136.189 137.11 135.909 134.872L135.909 8.39453C135.909 5.87618 138.147 3.91744 140.664 3.91745L163.595 3.91745C166.112 3.91745 167.789 5.87617 168.069 8.1147L168.069 24.6239L168.628 24.6239C174.501 8.67432 185.967 1.11928 201.068 1.11929C216.448 1.11929 226.236 8.67433 232.948 24.6239C238.82 8.67433 252.523 1.1193 267.065 1.1193C277.412 1.1193 288.598 5.31656 295.589 15.1102C303.419 25.7432 301.741 41.1332 301.741 54.8442L301.741 134.872C301.741 137.39 299.504 139.349 296.987 139.349L272.658 139.349C270.141 139.069 268.183 137.11 268.183 134.872L268.183 67.7157C268.183 62.3992 268.743 48.968 267.624 43.9313C265.667 35.5368 260.353 33.0184 253.082 33.0184C247.21 33.0184 240.778 36.9359 238.261 43.3717C235.744 49.8075 236.024 60.4405 236.024 67.7157L236.024 134.872C236.024 137.39 233.787 139.349 231.27 139.349L206.661 139.349C204.144 139.069 202.186 137.11 202.186 134.872L202.186 67.7157C202.186 53.7248 204.423 32.7386 187.085 32.7386C169.467 32.7386 170.027 52.8854 170.027 67.7157L170.027 134.872C169.747 137.11 167.789 139.069 164.993 139.069V139.069ZM620.821 1.11936C657.455 1.11937 677.31 32.4589 677.31 72.4727C677.31 111.087 655.497 141.867 620.821 141.867C585.026 141.867 565.451 110.528 565.451 71.3534C565.171 31.8992 585.026 1.11935 620.821 1.11936ZM620.821 27.1423C602.644 27.1423 601.525 52.0461 601.525 67.436C601.525 82.8259 601.246 115.844 620.541 115.844C639.557 115.844 640.676 89.2617 640.676 73.0324C640.676 62.3993 640.117 49.5277 637.041 39.4543C634.244 30.5002 628.651 27.1423 620.821 27.1423ZM724.571 139.069L699.962 139.069C697.445 138.789 695.487 136.831 695.487 134.592L695.487 7.83496C695.767 5.59643 697.725 3.63771 700.241 3.63771L723.173 3.63771C725.41 3.63771 727.088 5.31667 727.647 7.27539L727.647 26.5827L728.206 26.5827C735.198 9.23409 744.706 1.11938 761.764 1.11938C772.67 1.11939 783.577 5.03679 790.568 15.9497C797 26.0231 797 43.0919 797 55.4039L797 135.152C796.72 137.39 794.763 139.069 792.246 139.069L767.637 139.069C765.4 138.789 763.442 137.11 763.162 135.152L763.162 66.3167C763.162 52.3259 764.84 32.1791 747.782 32.1791C741.909 32.1791 736.316 36.0965 733.52 42.2525C730.164 50.0874 729.605 57.6424 729.605 66.3167L729.604 134.592C729.325 137.11 727.088 139.069 724.571 139.069V139.069ZM395.983 78.6287C395.983 88.1424 396.263 96.2571 391.509 104.931C387.594 111.927 381.441 116.124 374.45 116.124C364.942 116.124 359.349 108.849 359.349 98.2158C359.349 77.2296 378.086 73.3121 395.983 73.3121L395.983 78.6287ZM420.872 138.789C419.194 140.188 416.957 140.468 414.999 139.349C406.889 132.633 405.212 129.276 400.737 122.84C387.314 136.551 377.526 140.748 360.188 140.748C339.494 140.748 323.274 127.876 323.274 102.413C323.274 82.2663 334.181 68.835 349.561 62.1194C362.985 56.2432 381.721 55.124 395.983 53.4451L395.983 50.3671C395.983 44.491 396.542 37.4956 392.907 32.4589C389.831 27.9818 384.238 26.023 379.204 26.023C369.696 26.023 361.307 30.7799 359.349 40.8534C358.79 43.0919 357.392 45.3304 355.154 45.3304L331.384 42.812C329.427 42.2524 327.189 40.8533 327.749 37.7754C333.342 8.67439 359.349 6.28306e-05 382.84 6.69378e-05C394.865 6.90403e-05 410.525 3.07804 420.033 12.312C432.058 23.5047 430.939 38.6148 430.939 54.8442L430.939 93.1791C430.939 104.652 435.693 109.688 440.168 116.124C441.846 118.363 442.125 121.161 440.168 122.56C434.854 126.757 425.906 134.592 420.872 138.789V138.789ZM72.9884 78.6286C72.9884 88.1424 73.2681 96.2571 68.514 104.931C64.5989 111.927 58.4466 116.124 51.4554 116.124C41.9473 116.124 36.3544 108.849 36.3544 98.2158C36.3544 77.2295 55.0909 73.312 72.9884 73.312L72.9884 78.6286ZM97.5975 138.789C95.9196 140.188 93.6824 140.468 91.7249 139.349C83.6151 132.633 81.9372 129.275 77.4628 122.84C64.0396 136.551 54.2519 140.748 36.9136 140.748C16.2196 140.748 -2.23586e-05 127.876 -1.79065e-05 102.413C-1.43839e-05 82.2662 10.9063 68.8349 26.287 62.1193C39.7101 56.2432 58.4467 55.124 72.7088 53.4451L72.7088 50.3671C72.7088 44.4909 73.268 37.4955 69.6326 32.4588C66.5565 27.9817 60.9635 26.023 55.9298 26.023C46.4217 26.023 38.0323 30.7799 36.0747 40.8533C35.5154 43.0918 34.1172 45.3303 31.88 45.3303L8.1098 42.812C6.15226 42.2523 3.9151 40.8533 4.4744 37.7753C10.0674 8.67433 36.0747 6.30751e-06 59.5653 1.04147e-05C71.5902 1.25172e-05 87.2505 3.07799 96.7586 12.3119C108.784 23.5046 107.665 38.6148 107.665 54.8442L107.665 93.179C107.665 104.652 112.419 109.688 116.893 116.124C118.571 118.363 118.851 121.161 116.893 122.56C111.58 126.757 102.631 134.592 97.5975 138.789V138.789Z" fill="black"/>
</svg>
