<svg width="194" height="194" viewBox="0 0 194 194" fill="none" xmlns="http://www.w3.org/2000/svg">
<path d="M108.485 191.871C108.581 192.658 108.019 193.375 107.23 193.459C88.6494 195.43 69.8829 191.992 53.1935 183.545C36.0765 174.881 21.9132 161.335 12.4945 144.622C3.07585 127.908 -1.17516 108.777 0.279074 89.6473C1.7333 70.5177 8.82746 52.2489 20.6644 37.1512C32.5014 22.0534 48.5496 10.8048 66.7795 4.82775C85.0095 -1.14929 104.602 -1.5863 123.081 3.57198C141.559 8.73027 158.093 19.2522 170.591 33.8071C182.777 47.9986 190.594 65.4027 193.114 83.9173C193.221 84.7033 192.658 85.4194 191.871 85.5147C191.083 85.6101 190.369 85.0486 190.261 84.2626C187.81 66.3121 180.228 49.4391 168.412 35.6787C156.283 21.5548 140.239 11.3445 122.308 6.33895C104.377 1.33343 85.3646 1.7575 67.6745 7.55753C49.9845 13.3576 34.4116 24.273 22.9252 38.9237C11.4388 53.5743 4.55473 71.302 3.14357 89.865C1.7324 108.428 5.85752 126.993 14.9973 143.211C24.137 159.43 37.8809 172.574 54.4909 180.982C70.6734 189.173 88.8682 192.509 106.885 190.607C107.674 190.523 108.39 191.083 108.485 191.871Z" fill="white"/>
</svg>
