<svg width="42" height="42" viewBox="0 0 42 42" fill="none" xmlns="http://www.w3.org/2000/svg">
<path d="M21 0.166656C9.51876 0.166656 0.166687 9.51873 0.166687 21C0.166687 32.4812 9.51876 41.8333 21 41.8333C32.4813 41.8333 41.8334 32.4812 41.8334 21C41.8334 9.51873 32.4813 0.166656 21 0.166656ZM21 4.33332C30.2294 4.33332 37.6667 11.7706 37.6667 21C37.6667 29.3635 31.5528 36.2354 23.5391 37.4551V25.9683H28.3893L29.1503 21.0407H23.5391V18.347C23.5391 16.2991 24.2062 14.4814 26.1229 14.4814H29.1991V10.1805C28.6574 10.1076 27.5143 9.94856 25.3539 9.94856C20.8414 9.94856 18.1965 12.3319 18.1965 17.7611V21.0407H13.5578V25.9683H18.1965V37.4144C10.3131 36.0851 4.33335 29.2713 4.33335 21C4.33335 11.7706 11.7706 4.33332 21 4.33332Z" fill="#A4720D"/>
</svg>
