<svg width="38" height="38" viewBox="0 0 38 38" fill="none" xmlns="http://www.w3.org/2000/svg">
<path d="M10.6667 0.25C4.92292 0.25 0.25 4.92292 0.25 10.6667V27.3333C0.25 33.0771 4.92292 37.75 10.6667 37.75H27.3333C33.0771 37.75 37.75 33.0771 37.75 27.3333V10.6667C37.75 4.92292 33.0771 0.25 27.3333 0.25H10.6667ZM10.6667 4.41667H27.3333C30.7792 4.41667 33.5833 7.22083 33.5833 10.6667V27.3333C33.5833 30.7792 30.7792 33.5833 27.3333 33.5833H10.6667C7.22083 33.5833 4.41667 30.7792 4.41667 27.3333V10.6667C4.41667 7.22083 7.22083 4.41667 10.6667 4.41667ZM29.4167 6.5C28.8641 6.5 28.3342 6.71949 27.9435 7.11019C27.5528 7.5009 27.3333 8.0308 27.3333 8.58333C27.3333 9.13587 27.5528 9.66577 27.9435 10.0565C28.3342 10.4472 28.8641 10.6667 29.4167 10.6667C29.9692 10.6667 30.4991 10.4472 30.8898 10.0565C31.2805 9.66577 31.5 9.13587 31.5 8.58333C31.5 8.0308 31.2805 7.5009 30.8898 7.11019C30.4991 6.71949 29.9692 6.5 29.4167 6.5ZM19 8.58333C13.2562 8.58333 8.58333 13.2562 8.58333 19C8.58333 24.7437 13.2562 29.4167 19 29.4167C24.7437 29.4167 29.4167 24.7437 29.4167 19C29.4167 13.2562 24.7437 8.58333 19 8.58333ZM19 12.75C22.4458 12.75 25.25 15.5542 25.25 19C25.25 22.4458 22.4458 25.25 19 25.25C15.5542 25.25 12.75 22.4458 12.75 19C12.75 15.5542 15.5542 12.75 19 12.75Z" fill="#A4720D"/>
</svg>
